<mxfile host="app.diagrams.net" modified="2023-05-06T11:15:37.612Z" agent="Mozilla/5.0 (Macintosh; Intel Mac OS X 10_15_7) AppleWebKit/605.1.15 (KHTML, like Gecko) Version/16.3 Safari/605.1.15" etag="-3EIWfl69WSpFcLNlfU5" version="21.2.9">
  <diagram name="Seite-1" id="VG-hwnI3aBa3tFfHflap">
    <mxGraphModel dx="954" dy="608" grid="1" gridSize="10" guides="1" tooltips="1" connect="1" arrows="1" fold="1" page="1" pageScale="1" pageWidth="827" pageHeight="1169" math="0" shadow="0">
      <root>
        <mxCell id="0" />
        <mxCell id="1" parent="0" />
        <mxCell id="swHA0JQ_atu3qIhNIVTD-50" value="&lt;h1&gt;Zweiseitige Verzweigung&lt;/h1&gt;&lt;div style=&quot;border-color: var(--border-color);&quot;&gt;regen = input(&quot;Regnet es?&quot;)&lt;/div&gt;&lt;div style=&quot;border-color: var(--border-color);&quot;&gt;if regen == &quot;ja&quot;:&lt;/div&gt;&lt;div style=&quot;border-color: var(--border-color);&quot;&gt;&amp;nbsp; &amp;nbsp; print(&quot;Es regnet&quot;)&lt;br&gt;&lt;/div&gt;&lt;div style=&quot;border-color: var(--border-color);&quot;&gt;&amp;nbsp; &amp;nbsp; print(&quot;Regenjacke anziehen!&quot;)&lt;/div&gt;&lt;div style=&quot;border-color: var(--border-color);&quot;&gt;else:&lt;br&gt;&lt;/div&gt;&lt;div style=&quot;border-color: var(--border-color);&quot;&gt;&lt;div style=&quot;border-color: var(--border-color);&quot;&gt;&amp;nbsp; &amp;nbsp; print(&quot;Es regnet nicht.&quot;)&lt;/div&gt;&lt;div style=&quot;border-color: var(--border-color);&quot;&gt;&amp;nbsp; &amp;nbsp; print(&quot;Die Windjacke reicht!&quot;)&lt;/div&gt;&lt;/div&gt;&lt;div&gt;print(&quot;Viel Spass draussen!&quot;)&lt;br&gt;&lt;/div&gt;&lt;div&gt;&amp;nbsp; &amp;nbsp;&amp;nbsp;&lt;/div&gt;" style="text;html=1;strokeColor=none;fillColor=none;spacing=5;spacingTop=-20;whiteSpace=wrap;overflow=hidden;rounded=0;" parent="1" vertex="1">
          <mxGeometry x="400" y="300" width="380" height="160" as="geometry" />
        </mxCell>
        <mxCell id="qas828EMthf8ERMhL5aa-3" value="&lt;h1&gt;Einseitige Verzweigung&lt;/h1&gt;&lt;div style=&quot;border-color: var(--border-color);&quot;&gt;regen = input(&quot;Regnet es?&quot;)&lt;/div&gt;&lt;div style=&quot;border-color: var(--border-color);&quot;&gt;if regen == &quot;ja&quot;:&lt;/div&gt;&lt;div style=&quot;border-color: var(--border-color);&quot;&gt;&amp;nbsp; &amp;nbsp; print(&quot;Es regnet&quot;)&lt;/div&gt;&lt;div style=&quot;border-color: var(--border-color);&quot;&gt;&amp;nbsp; &amp;nbsp; print(&quot;Regenjacke anziehen!&quot;)&lt;/div&gt;&lt;div style=&quot;border-color: var(--border-color);&quot;&gt;print(&quot;Viel Spass draussen!&quot;)&lt;br&gt;&lt;/div&gt;&lt;div&gt;&amp;nbsp; &amp;nbsp;&amp;nbsp;&lt;/div&gt;" style="text;html=1;strokeColor=none;fillColor=none;spacing=5;spacingTop=-20;whiteSpace=wrap;overflow=hidden;rounded=0;" vertex="1" parent="1">
          <mxGeometry x="10" y="300" width="380" height="160" as="geometry" />
        </mxCell>
        <mxCell id="qas828EMthf8ERMhL5aa-4" value="" style="rounded=0;whiteSpace=wrap;html=1;fillColor=none;" vertex="1" parent="1">
          <mxGeometry y="300" width="830" height="170" as="geometry" />
        </mxCell>
      </root>
    </mxGraphModel>
  </diagram>
</mxfile>
